<svg width="444" height="69" viewBox="0 0 444 69" fill="none" xmlns="http://www.w3.org/2000/svg">
<path d="M392 24.5195C387.291 24.5195 378.167 24.5195 378.167 24.5195L367.031 55.6875H353.828L364.919 24.5195H348C348 24.5195 348.716 24.3278 349.356 23.8799C349.932 23.4319 350.509 22.8554 351.021 22.1514C351.532 21.5114 351.98 20.7435 352.364 19.9756C352.748 19.2077 353.133 18.4398 353.389 17.6719L355.053 13L396.216 13C395.05 16.272 392 24.5195 392 24.5195Z" fill="#F1F1F1"/>
<path d="M398.745 55.688H385.497L400.729 13H437.145C438.297 13 439.321 13.192 440.281 13.512C441.177 13.896 441.945 14.344 442.521 14.984C443.033 15.624 443.417 16.456 443.545 17.352C443.673 18.248 443.481 19.272 443.097 20.424L437.081 37.256C436.697 38.28 436.121 39.24 435.417 40.072C434.649 40.904 433.817 41.608 432.921 42.248C431.961 42.888 430.937 43.4 429.849 43.784C428.761 44.168 427.737 44.488 426.713 44.616L433.177 55.688H418.137L411.225 44.68H402.649L398.745 55.688ZM409.881 24.52L406.809 33.16H425.305L428.377 24.52H409.881Z" fill="#F1F1F1"/>
<path d="M305.516 40.136C304.364 40.136 303.276 40.008 302.38 39.624C301.42 39.304 300.652 38.792 300.14 38.152C299.564 37.512 299.244 36.744 299.116 35.848C298.988 34.952 299.116 33.864 299.564 32.712L303.98 20.424C304.812 18.12 306.284 16.328 308.396 14.984C310.508 13.704 312.748 13 315.18 13H349.548L347.884 17.672C347.628 18.44 347.244 19.208 346.86 19.976C346.476 20.744 346.028 21.512 345.516 22.152C345.004 22.856 344.428 23.432 343.852 23.88C343.212 24.328 342.636 24.52 341.996 24.52H315.756L314.284 28.616H335.404C337.708 28.616 339.5 29.32 340.716 30.6C341.932 31.944 342.124 33.736 341.292 36.04L336.94 48.264C336.044 50.568 334.572 52.424 332.46 53.704C330.348 55.048 328.108 55.688 325.74 55.688H289.372L293.532 44.168H325.228L326.636 40.136H305.516Z" fill="#F1F1F1"/>
<path d="M241.997 55.688L257.229 13H297.485L295.821 17.672C295.565 18.44 295.181 19.208 294.797 19.976C294.413 20.744 293.965 21.512 293.453 22.152C292.941 22.856 292.365 23.432 291.789 23.88C291.149 24.328 290.573 24.52 289.933 24.52H266.381L264.909 28.616H286.013L281.917 40.136H260.813L259.405 44.168H288.413L284.253 55.688H241.997Z" fill="#F1F1F1"/>
<path d="M241.628 38.5L238.116 48.264C237.22 50.568 235.748 52.424 233.636 53.704C231.524 55.048 229.284 55.688 226.916 55.688H190.5L205.732 13H226.94C237.628 13 245.628 27 241.628 38.5ZM226.404 44.168C226.404 44.168 228.128 39.5 229.892 34.344C231.332 30.1361 228.628 24.5 224.132 24.52C220.52 24.5361 214.884 24.52 214.884 24.52L207.908 44.168H226.404Z" fill="#F1F1F1"/>
<path d="M175.651 44.168L182.627 24.52H164.131L157.155 44.168H175.651ZM197.347 20.424L187.363 48.264C186.467 50.568 184.995 52.424 182.883 53.704C180.771 55.048 178.531 55.688 176.163 55.688H148.323C147.171 55.688 146.083 55.56 145.187 55.176C144.291 54.856 143.523 54.344 143.011 53.704C142.435 53.064 142.051 52.296 141.923 51.4C141.795 50.504 141.923 49.416 142.371 48.264L152.355 20.424C153.187 18.12 154.659 16.328 156.771 14.984C158.883 13.704 161.123 13 163.555 13H191.395C192.547 13 193.571 13.192 194.531 13.512C195.427 13.896 196.195 14.344 196.771 14.984C197.283 15.624 197.667 16.456 197.795 17.352C197.923 18.248 197.731 19.272 197.347 20.424Z" fill="#F1F1F1"/>
<path d="M118.952 36.2878C118.952 36.2878 116.004 27.2804 114.266 21C111.5 11 97.5783 11 94.0171 21C92.8696 24.2221 91.1485 28.9956 89.3815 34C86.3802 42.5 85.8802 44.5 77.8802 44.4805L73.7461 56H81.5283C91.6764 56 95.8802 50 97.9043 44.512C99.9284 39.024 102.032 33.024 102.032 33.024H103.428C103.428 33.024 106.219 42.6113 108.114 48.3118C111.5 58.5 124.802 58.3118 128.363 48.3118C129.511 45.0897 131.232 40.3162 132.999 35.3118C136 26.8118 136.5 24.8118 144.5 24.8313C145.5 21.8118 146 20.3118 146 20.3118C147 16.8118 150 13.3118 152 13.3118H140.852C130.704 13.3118 126.5 19.3118 124.476 24.7998C122.452 30.2878 120.348 36.2878 120.348 36.2878H118.952Z" fill="#F1F1F1"/>
<path d="M67.6309 24.8506C68.5212 27.9128 69 31.1505 69 34.5C69 53.5537 53.5537 69 34.5 69C23.4713 69 13.6515 63.8247 7.33594 55.7705C15.3311 54.6254 19.613 49.3686 21.4043 44.5117C23.419 39.0491 25.5129 33.0795 25.5322 33.0244H25.9277C25.9532 33.0823 30.0279 42.3522 32.6133 48.3115C37.1003 58.654 49.3021 58.3115 52.8633 48.3115C54.0107 45.0895 55.7321 40.3166 57.499 35.3125C60.3191 27.3257 60.9305 25.0767 67.6309 24.8506Z" fill="#9B63FF"/>
<path d="M34.5 0C45.6776 1.93508e-05 55.6115 5.31732 61.916 13.5586C54.0032 14.7413 49.7573 19.969 47.9756 24.7998C45.9515 30.2878 43.8477 36.2881 43.8477 36.2881H43.4521C43.4521 36.2881 39.3601 26.978 36.7666 21C32.2796 10.6576 20.0778 11 16.5166 21C15.3692 24.2221 13.6488 28.9957 11.8818 34C9.02221 42.0988 8.43294 44.2943 1.46387 44.4668C0.513126 41.3112 6e-06 37.9656 0 34.5C0 15.4462 15.4462 0 34.5 0Z" fill="#F040F5"/>
</svg>
