<svg width="110" height="100" viewBox="0 0 110 100" fill="none" xmlns="http://www.w3.org/2000/svg">
<path d="M87.6506 40.4902C88.528 43.5081 88.9999 46.6988 88.9999 49.9998C88.9998 68.7774 73.7775 83.9998 54.9999 83.9998C44.131 83.9998 34.4536 78.8995 28.2295 70.962C36.1088 69.8335 40.3286 64.6529 42.094 59.8664C44.0795 54.483 46.143 48.5998 46.1621 48.5456H46.5518C46.5769 48.6026 50.5926 57.7382 53.1405 63.6112C57.5624 73.8037 69.5874 73.4662 73.097 63.6112C74.2278 60.4359 75.9243 55.7321 77.6656 50.8005C80.4448 42.9294 81.0473 40.7131 87.6506 40.4902Z" fill="#8A6BE5"/>
<path d="M55 16C66.0156 16 75.8055 21.2403 82.0187 29.3621C74.2205 30.5276 70.0362 35.6796 68.2803 40.4404C66.2855 45.8488 64.2122 51.7622 64.2122 51.7622H63.8224C63.8224 51.7622 59.7896 42.587 57.2338 36.6957C52.8118 26.5031 40.7868 26.8406 37.2772 36.6957C36.1464 39.871 34.451 44.5754 32.7096 49.5072C29.8915 57.4887 29.3107 59.6523 22.4427 59.8224C21.5057 56.7124 21 53.4153 21 50C21 31.2224 36.2224 16 55 16Z" fill="#D75AD7"/>
</svg>
