<svg width="475" height="68" viewBox="0 0 475 68" fill="none" xmlns="http://www.w3.org/2000/svg">
<path d="M428.625 16H441.873L433.105 40.512L459.729 16H474.833L452.689 36.736L459.601 58.688H445.009L441.425 47.168L428.369 58.688H413.393L428.625 16Z" fill="white"/>
<path d="M359.285 58.688L374.517 16H388.597L398.645 39.04H399.093L407.349 16H420.597L405.365 58.688H391.221L381.173 35.712H380.725L372.533 58.688H359.285Z" fill="white"/>
<path d="M327.418 24.256L324.922 16H351.866L355.194 58.688H340.538L340.154 52.672H319.546L314.81 58.688H300.218L327.418 24.256ZM338.554 28.416L328.57 41.088H339.322L338.554 28.416Z" fill="white"/>
<path d="M262.443 58.688H249.195L264.427 16H300.843C301.995 16 303.019 16.192 303.979 16.512C304.875 16.896 305.643 17.344 306.219 17.984C306.731 18.624 307.115 19.456 307.243 20.352C307.371 21.248 307.179 22.272 306.795 23.424L300.779 40.256C300.395 41.28 299.819 42.24 299.115 43.072C298.347 43.904 297.515 44.608 296.619 45.248C295.659 45.888 294.635 46.4 293.547 46.784C292.459 47.168 291.435 47.488 290.411 47.616L296.875 58.688H281.835L274.923 47.68H266.347L262.443 58.688ZM273.579 27.52L270.507 36.16H289.003L292.075 27.52H273.579Z" fill="white"/>
<path d="M187.213 58.688L202.445 16H218.317L222.541 35.2L240.525 16H256.397L241.165 58.688H227.917L235.789 36.608L214.989 58.688H213.389L208.333 36.608L200.461 58.688H187.213Z" fill="white"/>
<path d="M164.288 58.688H151.04L154.944 47.68H147.648C146.496 47.68 145.408 47.552 144.512 47.168C143.616 46.848 142.848 46.336 142.336 45.696C141.76 45.056 141.44 44.288 141.312 43.392C141.184 42.496 141.312 41.408 141.76 40.256L150.4 16H163.648L156.48 36.16H174.976L182.144 16H195.392L186.752 40.256C186.304 41.408 185.664 42.496 184.896 43.392C184.128 44.288 183.232 45.056 182.208 45.696C181.184 46.336 180.096 46.848 178.944 47.168C177.792 47.552 176.64 47.68 175.488 47.68H168.192L164.288 58.688Z" fill="white"/>
<path d="M94.328 24.256L91.832 16H111.352L121.4 39.04H121.848L130.104 16H143.352L128.12 58.688H113.976L103.928 35.712H103.48L95.288 58.688H82.04L94.328 24.256Z" fill="white"/>
<path d="M62.8545 16.0127C66.114 21.2304 68 27.3945 68 34C68 52.7777 52.7777 68 34 68C23.7014 68 14.4733 63.4204 8.23828 56.1875C9.1531 56.7037 10.2074 57 11.3311 57C14.8275 57 17.6621 54.1497 17.6621 50.6338C17.6621 48.7571 16.8541 47.0704 15.5693 45.9053L23.6367 23.7314C24.1518 23.7272 24.653 23.661 25.1318 23.54L39.4512 46.6826C38.5955 47.7682 38.085 49.141 38.085 50.6338C38.085 54.1495 40.9187 56.9998 44.415 57C47.9115 57 50.7461 54.1497 50.7461 50.6338C50.7461 48.7573 49.9389 47.0704 48.6543 45.9053L56.7217 23.7314C60.1939 23.703 62.9999 20.8644 63 17.3662C63 16.9016 62.9485 16.449 62.8545 16.0127Z" fill="#59B942"/>
<path d="M34 0C44.2981 0 53.5257 4.57925 59.7607 11.8115C58.8462 11.2957 57.7921 11 56.6689 11C53.1725 11 50.3379 13.8503 50.3379 17.3662C50.3379 19.4362 51.3211 21.2749 52.8428 22.4375L44.8945 44.2852C44.7365 44.2733 44.5761 44.2676 44.415 44.2676C43.8872 44.2676 43.374 44.3336 42.8838 44.4561L28.5586 21.3047C29.4083 20.2211 29.915 18.8532 29.915 17.3662C29.915 13.8505 27.0813 11.0002 23.585 11C20.0885 11 17.2539 13.8503 17.2539 17.3662C17.254 19.4363 18.2369 21.2749 19.7588 22.4375L11.8096 44.2852C11.6516 44.2733 11.492 44.2676 11.3311 44.2676C7.83459 44.2676 5.00008 47.118 5 50.6338C5 51.098 5.05072 51.5504 5.14453 51.9863C1.88547 46.7689 0 40.605 0 34C0 15.2223 15.2223 0 34 0Z" fill="#F7FF00"/>
</svg>
