<svg width="110" height="110" viewBox="0 0 110 110" fill="none" xmlns="http://www.w3.org/2000/svg">
<path d="M82.0557 49.0771L63.7568 52.0771L76.748 28.8613C84.2915 35.0975 89.0995 44.5253 89.0996 55.0771C89.0996 73.8548 73.8773 89.0771 55.0996 89.0771C44.5354 89.0771 32.2242 95.0323 21.1396 105L82.0557 49.0771Z" fill="#4FD27A"/>
<path d="M34.2393 81.9268C26.2437 75.7058 21.0996 65.9924 21.0996 55.0771C21.0997 36.2996 36.322 21.0771 55.0996 21.0771C66.2925 21.0771 79.05 15.1035 90 5.10352C90 5.10352 89.9818 5.13114 89.9443 5.18262L30.0557 61.0771L47.8203 58.0771L34.2393 81.9268Z" fill="#4FD27A"/>
</svg>
