<svg width="110" height="110" viewBox="0 0 110 110" fill="none" xmlns="http://www.w3.org/2000/svg">
<path d="M83.8545 37.0127C87.114 42.2304 89 48.3945 89 55C89 73.7777 73.7777 89 55 89C44.7014 89 35.4733 84.4204 29.2383 77.1875C30.1531 77.7037 31.2074 78 32.3311 78C35.8275 78 38.6621 75.1497 38.6621 71.6338C38.6621 69.7571 37.8541 68.0704 36.5693 66.9053L44.6367 44.7314C45.1518 44.7272 45.653 44.661 46.1318 44.54L60.4512 67.6826C59.5955 68.7682 59.085 70.141 59.085 71.6338C59.085 75.1495 61.9187 77.9998 65.415 78C68.9115 78 71.7461 75.1497 71.7461 71.6338C71.7461 69.7573 70.9389 68.0704 69.6543 66.9053L77.7217 44.7314C81.1939 44.703 83.9999 41.8644 84 38.3662C84 37.9016 83.9485 37.449 83.8545 37.0127Z" fill="#4FD27A"/>
<path d="M55 21C65.2981 21 74.5257 25.5793 80.7607 32.8115C79.8462 32.2957 78.7921 32 77.6689 32C74.1725 32 71.3379 34.8503 71.3379 38.3662C71.3379 40.4362 72.3211 42.2749 73.8428 43.4375L65.8945 65.2852C65.7365 65.2733 65.5761 65.2676 65.415 65.2676C64.8872 65.2676 64.374 65.3336 63.8838 65.4561L49.5586 42.3047C50.4083 41.2211 50.915 39.8532 50.915 38.3662C50.915 34.8505 48.0813 32.0002 44.585 32C41.0885 32 38.2539 34.8503 38.2539 38.3662C38.254 40.4363 39.2369 42.2749 40.7588 43.4375L32.8096 65.2852C32.6516 65.2733 32.492 65.2676 32.3311 65.2676C28.8346 65.2676 26.0001 68.118 26 71.6338C26 72.098 26.0507 72.5504 26.1445 72.9863C22.8855 67.7689 21 61.605 21 55C21 36.2223 36.2223 21 55 21Z" fill="#F0E91A"/>
</svg>
