<svg width="110" height="110" viewBox="0 0 110 110" fill="none" xmlns="http://www.w3.org/2000/svg">
<path d="M55 21C73.7777 21 89 36.2223 89 55C89 73.7777 73.7777 89 55 89C51.2351 89 47.6135 88.3867 44.2285 87.2568C45.1164 84.7766 46.5412 80.9205 48.2598 75.8379C51.0197 67.6755 53.2155 63.5281 54.9521 60.1201C55.9934 58.0705 57.7103 56.9552 59.6816 56.3584C63.4066 55.239 73.942 55.0038 76.7158 54.8721C76.7973 54.8752 85.0943 55.1816 85.0947 50.46C85.0944 46.6646 81.3951 46.9379 81.3496 46.9414C77.2221 47.0484 74.0772 46.7682 72.04 45.9658C68.629 44.6243 68.5134 42.1633 68.501 41.3398C68.3319 31.8331 54.3137 30.6936 41.9629 33.0518C28.4604 35.6203 42.0001 54.5 32.9004 80.5C32.8703 80.586 32.8381 80.6715 32.8076 80.7578C25.5775 74.5229 21 65.2963 21 55C21 36.2223 36.2223 21 55 21Z" fill="#8A6BE5"/>
<path d="M58.8994 38.0195C61.6567 38.0198 63.8916 40.2544 63.8916 43.0117C63.8912 45.7687 61.6564 48.0037 58.8994 48.0039C56.1422 48.0039 53.9076 45.7688 53.9072 43.0117C53.9072 40.2543 56.142 38.0196 58.8994 38.0195Z" fill="#8A6BE5"/>
</svg>
