<svg width="325" height="99" viewBox="0 0 325 99" fill="none" xmlns="http://www.w3.org/2000/svg">
<path d="M307.097 38.424L297.113 66.264C296.217 68.568 294.745 70.424 292.633 71.704C290.521 73.048 288.281 73.688 285.913 73.688H249.497L264.729 31H301.145C302.297 31 303.321 31.192 304.281 31.512C305.177 31.896 305.945 32.344 306.521 32.984C307.033 33.624 307.417 34.456 307.545 35.352C307.673 36.248 307.481 37.272 307.097 38.424ZM285.401 62.168L292.377 42.52H273.881L266.905 62.168H285.401Z" fill="#121214"/>
<path d="M209.683 73.688H196.435L211.667 31H248.083C249.235 31 250.259 31.192 251.219 31.512C252.115 31.896 252.883 32.344 253.459 32.984C253.971 33.624 254.355 34.456 254.483 35.352C254.611 36.248 254.419 37.272 254.035 38.424L248.019 55.256C247.635 56.28 247.059 57.24 246.355 58.072C245.587 58.904 244.755 59.608 243.859 60.248C242.899 60.888 241.875 61.4 240.787 61.784C239.699 62.168 238.675 62.488 237.651 62.616L244.115 73.688H229.075L222.163 62.68H213.587L209.683 73.688ZM220.819 42.52L217.747 51.16H236.243L239.315 42.52H220.819Z" fill="#121214"/>
<path d="M161.269 31H176.373L180.469 42.008L192.373 31H207.477L184.309 52.376L192.245 73.688H177.077L173.045 62.808L161.205 73.688H146.037L169.013 52.376L161.269 31Z" fill="#121214"/>
<path d="M97.5596 73.688L112.792 31H149.208C150.36 31 151.384 31.192 152.344 31.512C153.24 31.896 154.008 32.344 154.584 32.984C155.096 33.624 155.48 34.456 155.608 35.352C155.736 36.248 155.544 37.272 155.16 38.424L152.6 45.592C151.96 47.128 151.128 48.408 150.04 49.496C148.888 50.648 147.608 51.48 146.2 52.056C147.096 52.632 147.8 53.4 148.184 54.424C148.568 55.448 148.568 56.664 148.12 58.008L145.176 66.264C144.28 68.568 142.808 70.424 140.696 71.704C138.584 73.048 136.344 73.688 133.976 73.688H97.5596ZM120.472 46.616H138.968L140.44 42.52H121.944L120.472 46.616ZM114.968 62.168H133.464L134.872 58.136H116.376L114.968 62.168Z" fill="#121214"/>
<path d="M49 16C67.7777 16 83 31.2223 83 50C83 68.7777 67.7777 84 49 84C45.2351 84 41.6135 83.3867 38.2285 82.2568C39.1164 79.7766 40.5412 75.9205 42.2598 70.8379C45.0197 62.6755 47.2155 58.5281 48.9521 55.1201C49.9934 53.0705 51.7103 51.9552 53.6816 51.3584C57.4066 50.239 67.942 50.0038 70.7158 49.8721C70.7973 49.8752 79.0943 50.1816 79.0947 45.46C79.0944 41.6646 75.3951 41.9379 75.3496 41.9414C71.2221 42.0484 68.0772 41.7682 66.04 40.9658C62.629 39.6243 62.5134 37.1633 62.501 36.3398C62.3319 26.8331 48.3137 25.6936 35.9629 28.0518C22.4604 30.6203 36.0001 49.5 26.9004 75.5C26.8703 75.586 26.8381 75.6715 26.8076 75.7578C19.5775 69.5229 15 60.2963 15 50C15 31.2223 30.2223 16 49 16ZM52.8994 33.0195C55.6567 33.0198 57.8916 35.2544 57.8916 38.0117C57.8912 40.7687 55.6564 43.0037 52.8994 43.0039C50.1422 43.0039 47.9076 40.7688 47.9072 38.0117C47.9072 35.2543 50.142 33.0196 52.8994 33.0195Z" fill="#8A6BE5"/>
</svg>
